<?xml version="1.0" encoding="UTF-8"?><svg id="Layer_2" xmlns="http://www.w3.org/2000/svg" viewBox="0 0 281.91 117.73"><defs><style>.cls-1{fill:#2d4752;}.cls-2{fill:#00b4c0;}</style></defs><g id="Layer_1-2"><path class="cls-1" d="M17.3,90.25c-1.48-.02-2.94.33-4.26,1-1.53.8-3,1.72-4.39,2.75v22.4H0v-32.28h5.66l1.46,3.46c1.96-1.4,4.11-2.52,6.39-3.32,1.92-.73,3.95-1.14,6-1.2,4.08,0,6.94,1.15,8.59,3.46,1.65,2.31,2.47,5.52,2.46,9.65v20.23h-8.56v-19.83c.1-1.64-.33-3.28-1.23-4.66-.8-1.11-2.11-1.74-3.47-1.66Z"/><path class="cls-1" d="M53.27,117.2c-3.15.07-6.27-.64-9.08-2.07-2.54-1.33-4.62-3.38-6-5.89-1.49-2.74-2.24-5.83-2.19-8.95-.07-3.13.66-6.23,2.13-9,1.37-2.54,3.46-4.63,6-6,2.81-1.44,5.93-2.16,9.08-2.09,3.15-.07,6.27.64,9.09,2.06,2.53,1.33,4.62,3.38,6,5.89,2.84,5.64,2.84,12.29,0,17.93-1.37,2.55-3.45,4.63-6,6-2.79,1.45-5.89,2.17-9.03,2.12ZM61.59,100.2c.11-2.49-.73-4.94-2.33-6.85-2.96-3.28-8.02-3.55-11.3-.59-.23.2-.44.42-.64.65-1.59,1.93-2.42,4.38-2.32,6.88-.11,2.5.72,4.94,2.33,6.86,2.96,3.28,8.02,3.54,11.3.58.23-.2.44-.42.64-.65,1.6-1.94,2.43-4.41,2.32-6.92v.04Z"/><path class="cls-1" d="M85.72,84.19h5.86l2.66,6.65h-8.52v13.71c-.06,1.5.39,2.98,1.28,4.19.83,1.07,2.14,1.67,3.5,1.6,1.22-.02,2.43-.31,3.52-.86l2.53,6.25c-.91.65-1.92,1.12-3,1.4-1.15.37-2.35.58-3.56.6-4.04,0-7.19-1.02-9.45-3.06-2.26-2-3.39-4.91-3.39-8.59v-15.24h-4.34v-6.65h4.33v-7.65l8.58-1.54v9.19Z"/><path class="cls-1" d="M112.7,91.24c-1.64.02-3.27.23-4.86.64-1.55.35-3.07.85-4.53,1.49l-2.31-7.18c1.72-.97,3.58-1.64,5.52-2,1.96-.52,3.97-.82,6-.9,2.44-.03,4.85.49,7.06,1.53,2.04.95,3.8,2.42,5.09,4.26,1.25,1.79,1.92,3.93,1.9,6.12v21.2h-5.57l-1.46-3.46c-2.71,2.84-5.55,4.26-8.52,4.26-3.86,0-6.77-1-8.72-2.83-2-2.02-3.07-4.78-2.93-7.62-.16-2.92,1.07-5.75,3.33-7.62,2.22-1.8,5.19-2.7,8.92-2.7h6.32c.04-1.41-.47-2.78-1.43-3.82-1.03-.96-2.41-1.46-3.81-1.37ZM111.43,102.24c-1.28-.05-2.52.43-3.42,1.33-.85.85-1.32,2-1.3,3.2,0,.97.42,1.9,1.16,2.53.82.73,1.9,1.11,3,1.06,2.71-.06,5.28-1.21,7.12-3.19v-4.93h-6.56Z"/><path class="cls-1" d="M142.94,74.67c.03,1.3-.49,2.56-1.43,3.46-.92.92-2.18,1.43-3.49,1.4-1.28.03-2.51-.48-3.4-1.4-1.85-1.93-1.85-4.99,0-6.92.89-.91,2.12-1.42,3.4-1.39,1.3-.03,2.56.47,3.49,1.39.94.9,1.46,2.16,1.43,3.46ZM142.41,84.12v32.28h-8.65v-32.28h8.65Z"/><path class="cls-1" d="M164.61,92.64c-2.17,1.09-4.19,2.45-6,4.06v19.7h-8.65v-32.28h4.52l2.87,5.39c1.67-1.45,3.49-2.7,5.45-3.72,1.68-.99,3.58-1.57,5.53-1.67l1.67,6.88c-1.9.14-3.74.7-5.39,1.64Z"/><path class="cls-1" d="M188.65,83.26c2.89-.1,5.75.69,8.18,2.26,2.21,1.5,3.92,3.62,4.93,6.09,1.09,2.72,1.63,5.62,1.59,8.55v2.66h-21.76c.31,2.02,1.34,3.86,2.9,5.19,1.49,1.2,3.76,1.8,6.82,1.8,1.63.02,3.24-.22,4.79-.73,1.59-.57,3.13-1.28,4.59-2.13l2.53,6.25c-1.6,1.28-3.4,2.3-5.32,3-2.19.72-4.49,1.06-6.79,1-6.12,0-10.77-1.5-13.94-4.5-3.17-3-4.76-7.14-4.76-12.41-.06-3.12.62-6.2,2-9,1.23-2.52,3.19-4.61,5.62-6,2.65-1.42,5.62-2.12,8.62-2.03h0ZM188.45,90.64c-1.64-.04-3.23.54-4.45,1.63-1.29,1.27-2.11,2.94-2.34,4.73h13.51c-.28-1.8-1.1-3.47-2.36-4.79-1.19-1.07-2.76-1.64-4.36-1.57Z"/><path class="cls-1" d="M214,113.2c.01.85-.33,1.67-.94,2.26-.57.6-1.36.94-2.19.94-1.76,0-3.19-1.42-3.2-3.18,0,0,0-.01,0-.02,0-.82.33-1.6.93-2.16.61-.59,1.42-.92,2.27-.9.82-.01,1.61.31,2.19.9.6.56.95,1.34.94,2.16Z"/><path class="cls-1" d="M248.8,100.29c0,3-.6,5.96-1.8,8.71-1.09,2.47-2.88,4.57-5.13,6.06-2.39,1.5-5.18,2.26-8,2.19-2.84,0-5.75-1.2-8.72-3.59l-.87,2.73h-2.73v-46.31l4.13-.66v16.9c2.38-1.96,5.37-3.04,8.45-3.06,4.67,0,8.28,1.55,10.85,4.66,2.57,3.11,3.84,7.23,3.82,12.37h0ZM244.6,100.36c0-4.17-.86-7.51-2.59-10s-4.34-3.72-7.85-3.69c-1.63-.03-3.25.31-4.73,1-1.42.69-2.7,1.64-3.79,2.79v19.83c1.12,1.01,2.37,1.87,3.73,2.53,1.46.66,3.05.97,4.65.93,3.08.17,6.03-1.25,7.82-3.76,1.9-2.85,2.86-6.21,2.76-9.63Z"/><path class="cls-1" d="M268.4,83.26c4.57,0,7.97,1.56,10.18,4.69,2.21,3.13,3.32,7.31,3.33,12.54h-23.91c.05,4.13,1.02,7.41,2.93,9.82,1.91,2.41,4.92,3.62,9.05,3.62,1.71,0,3.41-.22,5.06-.69,1.75-.54,3.44-1.24,5.06-2.1l1.39,3.06c-1.71.94-3.5,1.71-5.35,2.3-1.95.55-3.97.8-6,.76-5.41,0-9.49-1.55-12.24-4.66-2.75-3.11-4.13-7.28-4.13-12.51.04-5.01,1.34-9.07,3.89-12.17,2.55-3.1,6.13-4.65,10.74-4.66h0ZM268.2,86.72c-2.71-.14-5.33.96-7.12,3-1.81,2.27-2.86,5.05-3,7.95h19.63c-.71-7.29-3.88-10.94-9.51-10.95Z"/><path class="cls-2" d="M121.23,0h60.9v11.55h-60.9V0Z"/><path class="cls-2" d="M144.33,16.8h60.9v11.55h-60.9v-11.55Z"/><path class="cls-2" d="M101.28,34.65h60.9v11.55h-60.9v-11.55Z"/><path class="cls-2" d="M77.13,51.45h60.9v11.55h-60.9v-11.55Z"/></g></svg>